<svg xmlns="http://www.w3.org/2000/svg" width="36" height="39.273" viewBox="0 0 36 39.273"><defs><style>.a{fill:#fff;}</style></defs><path class="a" d="M24.955,137.759H4.5a4.5,4.5,0,0,1-4.5-4.5V111.168a4.5,4.5,0,0,1,4.5-4.5h.818a1.227,1.227,0,1,1,0,2.455H4.5a2.048,2.048,0,0,0-2.046,2.045v22.091A2.048,2.048,0,0,0,4.5,135.3H24.955A2.048,2.048,0,0,0,27,133.259v-.818a1.227,1.227,0,0,1,2.455,0v.818A4.5,4.5,0,0,1,24.955,137.759Zm0,0" transform="translate(0 -98.486)"/><path class="a" d="M149.682,29.455H132.5a4.5,4.5,0,0,1-4.5-4.5V4.5A4.5,4.5,0,0,1,132.5,0h17.182a4.5,4.5,0,0,1,4.5,4.5V24.955A4.5,4.5,0,0,1,149.682,29.455Zm-17.182-27A2.048,2.048,0,0,0,130.455,4.5V24.955A2.048,2.048,0,0,0,132.5,27h17.182a2.048,2.048,0,0,0,2.045-2.046V4.5a2.048,2.048,0,0,0-2.045-2.046Zm0,0" transform="translate(-118.182)"/></svg>