<svg xmlns="http://www.w3.org/2000/svg" width="278.566" height="252.51" viewBox="0 0 278.566 252.51"><defs><style>.a,.b{fill:#fbc72d;}.b{opacity:0.8;}.c{fill:#176af2;}.d{fill:#4285f4;}.e{fill:#fbd257;}</style></defs><path class="a" d="M264.239,45l97.246,168.436a42.03,42.03,0,0,1-36.42,63.02H227.819L194.189,150.2l33.63-126.255A42.01,42.01,0,0,1,264.239,45Z" transform="translate(-88.536 -23.946)"/><path class="b" d="M102.863,45,5.616,213.436a42.03,42.03,0,0,0,36.421,63.02h97.246V23.946A42.01,42.01,0,0,0,102.863,45Z" transform="translate(0 -23.946)"/><path class="c" d="M375.711,235.946,278.465,67.511a25.308,25.308,0,0,0-21.136-12.633L340.5,273.746h13.351a25.217,25.217,0,0,0,21.859-37.8Z" transform="translate(-117.323 -38.049)"/><path class="d" d="M256.124,235.932a28.315,28.315,0,0,1,2.9,12.577c0,13.906-9.758,25.222-21.759,25.222H56.128a25.218,25.218,0,0,1-21.859-37.8L131.515,67.5a25.329,25.329,0,0,1,21.859-12.65q.362,0,.723.017c7.471.292,14.371,5.072,18.132,12.633Z" transform="translate(-14.091 -38.035)"/><path class="a" d="M256,354.131v28.025a14.012,14.012,0,1,0,0-28.025Z" transform="translate(-116.717 -174.486)"/><path class="e" d="M244.258,354.131c1.547,0,2.8,6.272,2.8,14.013s-1.256,14.013-2.8,14.013a14.013,14.013,0,1,1,0-28.025Z" transform="translate(-104.974 -174.486)"/><path class="a" d="M256,132.646V236.338a14.014,14.014,0,0,0,14.013-14.013V146.659A14.011,14.011,0,0,0,256,132.646Z" transform="translate(-116.717 -73.505)"/><path class="e" d="M244.258,132.646c1.547,0,2.8,6.272,2.8,14.013v75.667c0,7.735-1.256,14.013-2.8,14.013a14.014,14.014,0,0,1-14.013-14.013V146.659A14.011,14.011,0,0,1,244.258,132.646Z" transform="translate(-104.974 -73.505)"/></svg>