<svg xmlns="http://www.w3.org/2000/svg" width="61.893" height="61.893" viewBox="0 0 61.893 61.893"><defs><style>.a{fill:#fff;}</style></defs><g transform="translate(70.854 175.147) rotate(-90)"><g transform="translate(175.147 -70.854) rotate(90)"><path class="a" d="M44.486,29.012H24.011l7.971-7.971a1.934,1.934,0,1,0-2.735-2.735L18.3,29.248a1.9,1.9,0,0,0-.5,1.7,1.9,1.9,0,0,0,.5,1.7L29.248,43.588a1.934,1.934,0,0,0,2.735-2.735l-7.973-7.973H44.486a1.934,1.934,0,1,0,0-3.868ZM30.946,0A30.946,30.946,0,1,0,61.893,30.946,30.945,30.945,0,0,0,30.946,0Zm0,58.025A27.078,27.078,0,1,1,58.025,30.946,27.078,27.078,0,0,1,30.946,58.025Z"/></g></g></svg>