<svg xmlns="http://www.w3.org/2000/svg" width="211.154" height="173.439" viewBox="0 0 211.154 173.439"><defs><style>.a{fill:#ea4335;}.b{fill:#ecf4ff;}.c{opacity:0.23;}.d{fill:#9dc6fb;}.e{fill:#f6e266;}.f{fill:#f1d333;}.g{fill:#e49542;}</style></defs><g transform="translate(0 0)"><path class="a" d="M206.905,191.645H4.249A4.248,4.248,0,0,1,0,187.4V49.974a4.248,4.248,0,0,1,4.249-4.249H206.905a4.248,4.248,0,0,1,4.249,4.249V187.4A4.248,4.248,0,0,1,206.905,191.645Z" transform="translate(0 -45.725)"/></g><g transform="translate(102.278 45.35)"><path class="a" d="M294.466,229.647A219.218,219.218,0,0,1,248,256.259H352.628a4.248,4.248,0,0,0,4.249-4.249V155.689C344.567,182.023,323.177,208.266,294.466,229.647Z" transform="translate(-248.001 -155.689)"/></g><g transform="translate(13.734 13.734)"><path class="b" d="M33.3,193.23V83.275a4.248,4.248,0,0,1,4.249-4.249h175.19a4.248,4.248,0,0,1,4.249,4.249V193.23a4.248,4.248,0,0,1-4.249,4.249H37.55A4.248,4.248,0,0,1,33.3,193.23Z" transform="translate(-33.301 -79.026)"/></g><g class="c" transform="translate(129.483 69.252)"><path class="a" d="M333.227,263.7a227.649,227.649,0,0,1-19.261,12.878h63.689a4.248,4.248,0,0,0,4.249-4.249V213.645A213.333,213.333,0,0,1,333.227,263.7Z" transform="translate(-313.966 -213.645)"/></g><g transform="translate(75.534 27.467)"><path class="d" d="M183.154,121.812v-5.236a4.248,4.248,0,0,1,4.249-4.249H238.99a4.248,4.248,0,0,1,4.249,4.249v5.236a4.248,4.248,0,0,1-4.249,4.249H187.4A4.249,4.249,0,0,1,183.154,121.812Z" transform="translate(-183.154 -112.327)"/></g><g transform="translate(137.336 85.835)"><g transform="translate(12.875 42.06)"><path class="a" d="M394.827,401.089l-12.248-6.43a2.55,2.55,0,0,0-2.37,0l-12.248,6.43a2.549,2.549,0,0,1-3.734-2.257V355.84h34.334v42.992A2.549,2.549,0,0,1,394.827,401.089Z" transform="translate(-364.227 -355.84)"/></g><ellipse class="e" cx="30.042" cy="30.042" rx="30.042" ry="30.042"/><g transform="translate(4.528 4.529)"><path class="f" d="M385.359,264.836a30.04,30.04,0,0,1-41.372,41.371,30.041,30.041,0,1,0,41.372-41.371Z" transform="translate(-343.987 -264.836)"/></g><g transform="translate(13.734 13.734)"><ellipse class="g" cx="16.309" cy="16.309" rx="16.309" ry="16.309"/></g></g><g transform="translate(43.594 51.748)"><path class="d" d="M226.485,177.576H108.891a3.186,3.186,0,0,1,0-6.373H226.485a3.186,3.186,0,0,1,0,6.373Z" transform="translate(-105.705 -171.203)"/></g><g transform="translate(43.594 65.482)"><path class="d" d="M226.485,210.877H108.891a3.186,3.186,0,0,1,0-6.373H226.485a3.186,3.186,0,0,1,0,6.373Z" transform="translate(-105.705 -204.504)"/></g><g transform="translate(43.594 79.216)"><path class="d" d="M179.276,244.178H108.891a3.186,3.186,0,1,1,0-6.373h70.385a3.186,3.186,0,1,1,0,6.373Z" transform="translate(-105.705 -237.805)"/></g><g transform="translate(43.594 92.95)"><path class="a" d="M132.067,277.479H108.891a3.186,3.186,0,0,1,0-6.373h23.175a3.186,3.186,0,0,1,0,6.373Z" transform="translate(-105.705 -271.106)"/></g><g transform="translate(43.594 106.683)"><path class="a" d="M132.067,310.779H108.891a3.186,3.186,0,0,1,0-6.373h23.175a3.186,3.186,0,0,1,0,6.373Z" transform="translate(-105.705 -304.406)"/></g></svg>