<svg xmlns="http://www.w3.org/2000/svg" width="200.116" height="164.372" viewBox="0 0 200.116 164.372"><defs><style>.a{fill:#4285f4;}.b{fill:#ecf4ff;}.c{fill:#cbe2ff;}.d{fill:#9dc6fb;}.e{fill:#0f9d58;}.f{fill:#f6e266;}.g{fill:#f1d333;}.h{fill:#e49542;}.i{fill:#ea4335;}</style></defs><g transform="translate(0 0)"><path class="a" d="M196.089,184.017H4.027A4.026,4.026,0,0,1,0,179.99V49.752a4.026,4.026,0,0,1,4.027-4.027H196.089a4.026,4.026,0,0,1,4.027,4.027V179.99A4.026,4.026,0,0,1,196.089,184.017Z" transform="translate(0 -45.725)"/></g><g transform="translate(96.931 42.98)"><path class="a" d="M292.037,225.78A207.759,207.759,0,0,1,248,251h99.157a4.026,4.026,0,0,0,4.027-4.027V155.689c-11.666,24.958-31.938,49.829-59.147,70.091Z" transform="translate(-248.001 -155.689)"/></g><g transform="translate(13.016 13.016)"><path class="b" d="M33.3,187.26V83.053a4.026,4.026,0,0,1,4.027-4.027H203.359a4.026,4.026,0,0,1,4.027,4.027V187.26a4.026,4.026,0,0,1-4.027,4.027H37.328A4.026,4.026,0,0,1,33.3,187.26Z" transform="translate(-33.301 -79.026)"/></g><g transform="translate(122.714 65.632)"><path class="c" d="M332.22,261.084a215.718,215.718,0,0,1-18.254,12.205h60.359a4.026,4.026,0,0,0,4.027-4.027V213.645A202.181,202.181,0,0,1,332.22,261.084Z" transform="translate(-313.966 -213.645)"/></g><g transform="translate(71.586 26.031)"><path class="d" d="M183.154,121.316v-4.963a4.026,4.026,0,0,1,4.027-4.027h48.89a4.026,4.026,0,0,1,4.027,4.027v4.963a4.026,4.026,0,0,1-4.027,4.027h-48.89A4.027,4.027,0,0,1,183.154,121.316Z" transform="translate(-183.154 -112.327)"/></g><g transform="translate(130.156 81.348)"><g transform="translate(12.202 39.861)"><path class="e" d="M393.227,398.723l-11.608-6.094a2.417,2.417,0,0,0-2.246,0l-11.608,6.094a2.416,2.416,0,0,1-3.539-2.139V355.84h32.539v40.744A2.416,2.416,0,0,1,393.227,398.723Z" transform="translate(-364.227 -355.84)"/></g><circle class="f" cx="28.472" cy="28.472" r="28.472"/><g transform="translate(4.291 4.292)"><path class="g" d="M383.2,264.836a28.469,28.469,0,0,1-39.209,39.209A28.47,28.47,0,1,0,383.2,264.836Z" transform="translate(-343.987 -264.836)"/></g><g transform="translate(13.016 13.016)"><circle class="h" cx="15.456" cy="15.456" r="15.456"/></g></g><g transform="translate(41.315 49.043)"><path class="d" d="M220.171,177.242H108.725a3.02,3.02,0,0,1,0-6.039H220.171a3.02,3.02,0,1,1,0,6.039Z" transform="translate(-105.705 -171.203)"/></g><g transform="translate(41.315 62.059)"><path class="d" d="M220.171,210.543H108.725a3.02,3.02,0,0,1,0-6.039H220.171a3.02,3.02,0,1,1,0,6.039Z" transform="translate(-105.705 -204.504)"/></g><g transform="translate(41.315 75.075)"><path class="d" d="M175.43,243.844H108.725a3.02,3.02,0,1,1,0-6.039H175.43a3.02,3.02,0,1,1,0,6.039Z" transform="translate(-105.705 -237.805)"/></g><g transform="translate(41.315 88.09)"><path class="i" d="M130.689,277.145H108.725a3.02,3.02,0,0,1,0-6.039h21.964a3.02,3.02,0,0,1,0,6.039Z" transform="translate(-105.705 -271.106)"/></g><g transform="translate(41.315 101.106)"><path class="i" d="M130.689,310.445H108.725a3.02,3.02,0,1,1,0-6.039h21.964a3.02,3.02,0,1,1,0,6.039Z" transform="translate(-105.705 -304.406)"/></g></svg>