<svg xmlns="http://www.w3.org/2000/svg" width="660" height="434" viewBox="0 0 660 434">
  <g id="Group_298" data-name="Group 298" transform="translate(218 -3191)">
    <g id="Rectangle_167" data-name="Rectangle 167" transform="translate(-218 3191)" fill="#fbfbfb" stroke="#707070" stroke-width="1">
      <rect width="660" height="434" stroke="none"/>
      <rect x="0.5" y="0.5" width="659" height="433" fill="none"/>
    </g>
    <g id="badge_1_" data-name="badge (1)" transform="translate(70.346 3342.771)">
      <path id="Path_388" data-name="Path 388" d="M64.316,232v43.927l20.672-20.672,20.672,20.672V232s-15.684,2.584-20.672,2.584c-6.847,0-20.672-2.584-20.672-2.584Zm0,0" transform="translate(-43.645 -157.065)" fill="#f1d333"/>
      <path id="Path_389" data-name="Path 389" d="M111.323,95.5A15.5,15.5,0,1,1,95.82,80,15.5,15.5,0,0,1,111.323,95.5Zm0,0" transform="translate(-54.476 -54.161)" fill="#4285f4"/>
      <g id="Group_296" data-name="Group 296" transform="translate(0 0)">
        <path id="Path_390" data-name="Path 390" d="M84.988,105.343A20.672,20.672,0,1,0,64.316,84.672,20.7,20.7,0,0,0,84.988,105.343Zm0-31.007A10.336,10.336,0,1,1,74.652,84.672,10.346,10.346,0,0,1,84.988,74.336Zm0,0" transform="translate(-43.644 -43.328)" fill="#f1d333"/>
        <path id="Path_391" data-name="Path 391" d="M41.659,105.5,67.5,131.34V73.591a41.334,41.334,0,1,0-51.679.015v57.731Zm15.5.883-15.5-15.5-15.5,15.5V79.649a41.061,41.061,0,0,0,31.007,0ZM10.652,41.344A31.007,31.007,0,1,1,53.7,69.917l-.006,0a31.344,31.344,0,0,1-28.116-2.065A30.781,30.781,0,0,1,10.652,41.344Zm0,0" transform="translate(-0.316 0)" fill="#4285f4"/>
      </g>
    </g>
  </g>
</svg>
