<svg xmlns="http://www.w3.org/2000/svg" width="36.642" height="39.973" viewBox="0 0 36.642 39.973"><defs><style>.a{fill:#fff;}</style></defs><path class="a" d="M315.578,12.492a6.246,6.246,0,1,1,6.246-6.246A6.254,6.254,0,0,1,315.578,12.492Zm0-9.993a3.747,3.747,0,1,0,3.747,3.747A3.752,3.752,0,0,0,315.578,2.5Zm0,0" transform="translate(-285.182)"/><path class="a" d="M315.578,364.492a6.246,6.246,0,1,1,6.246-6.246A6.254,6.254,0,0,1,315.578,364.492Zm0-9.993a3.747,3.747,0,1,0,3.747,3.747A3.752,3.752,0,0,0,315.578,354.5Zm0,0" transform="translate(-285.182 -324.518)"/><path class="a" d="M6.246,188.492a6.246,6.246,0,1,1,6.246-6.246A6.253,6.253,0,0,1,6.246,188.492Zm0-9.993a3.747,3.747,0,1,0,3.747,3.747A3.752,3.752,0,0,0,6.246,178.5Zm0,0" transform="translate(0 -162.259)"/><path class="a" d="M120.939,106.869a1.248,1.248,0,0,1-.62-2.333l15.455-8.811a1.249,1.249,0,0,1,1.236,2.17l-15.455,8.811a1.252,1.252,0,0,1-.616.163Zm0,0" transform="translate(-110.345 -88.099)"/><path class="a" d="M136.412,282.859a1.238,1.238,0,0,1-.616-.165l-15.455-8.811a1.249,1.249,0,0,1,1.236-2.17l15.454,8.811a1.25,1.25,0,0,1-.619,2.335Zm0,0" transform="translate(-110.365 -250.348)"/></svg>